<svg xmlns="http://www.w3.org/2000/svg" xmlns:xlink="http://www.w3.org/1999/xlink" fill="none" version="1.1" width="40" height="40" viewBox="0 0 40 40"><defs><clipPath id="master_svg0_1_0043"><rect x="0" y="0" width="40" height="40" rx="0"/></clipPath></defs><g clip-path="url(#master_svg0_1_0043)"><path d="M6.113283399081421,35.5937115L33.96487419908142,35.5937115C35.23437519908142,35.5937115,36.37107419908142,34.9375135,37.00777419908142,33.8359125C37.64457319908142,32.7344135,37.64457319908142,31.4219135,37.00777419908142,30.3203125L23.08207319908142,6.2031225C22.44917319908142,5.1015625,21.30857219908142,4.4453125,20.03907419908142,4.4453125C18.76957319908142,4.4453125,17.63277319908142,5.1015625,16.996073199081422,6.2031225L3.070312439081421,30.3203125C2.433593449081421,31.4219135,2.433593449081421,32.7344135,3.070312439081421,33.8359125C3.703123499081421,34.9375135,4.8437532990814205,35.5937115,6.113283399081421,35.5937115ZM5.10156349908142,31.4922125L19.023473199081423,7.3750024C19.32817419908142,6.8437524,19.835973199081423,6.7890625,20.03907419908142,6.7890625C20.242174199081422,6.7890625,20.74997319908142,6.847652399999999,21.054674199081422,7.3750024L34.98047219908142,31.4922125C35.28517519908142,32.019512500000005,35.08207319908142,32.488311499999995,34.98047219908142,32.6641125C34.87887119908142,32.839813500000005,34.57417319908142,33.2500135,33.96487419908142,33.2500135L6.117183399081421,33.2500135C5.5039033990814215,33.2500135,5.203123299081421,32.839813500000005,5.10156349908142,32.6641125C5.0000032990814205,32.488311499999995,4.796873299081421,32.019512500000005,5.10156349908142,31.4922125ZM18.46877319908142,15.0391125C18.46877319908142,14.4492125,19.38277419908142,13.9687529,20.03127219908142,13.9687529C20.67577319908142,13.9687529,21.59377219908142,14.4453125,21.59377219908142,15.0391125L21.20317419908142,24.6133115C21.20317419908142,25.2031115,20.679674199081422,25.6836125,20.03127219908142,25.6836125C19.38277419908142,25.6836125,18.85937319908142,25.2070125,18.85937319908142,24.6133115L18.46877319908142,15.0391125ZM20.632274199081422,27.0066125C21.42957319908142,27.3369125,21.80817419908142,28.2509115,21.47787219908142,29.0482125C21.147674199081422,29.8455125,20.23357319908142,30.2241115,19.436372199081422,29.8938125C18.63907419908142,29.5636115,18.26047319908142,28.6495135,18.590673199081422,27.8522125C18.920972199081422,27.0550115,19.834974199081422,26.6764125,20.632274199081422,27.0066125Z" fill-rule="evenodd" fill="#000000" fill-opacity="1"/></g></svg>