<svg xmlns="http://www.w3.org/2000/svg" xmlns:xlink="http://www.w3.org/1999/xlink" fill="none" version="1.1" width="40" height="40" viewBox="0 0 40 40"><path d="M8.6718726,36.078125L22.4531635,36.078125C25.0742625,36.078125,27.2109625,33.941424999999995,27.2109625,31.320326L27.2109625,29.582026C27.2109625,28.687525,26.4882625,27.964825,25.5937635,27.964825C24.6992625,27.964825,23.9765625,28.687525,23.9765625,29.582026L23.9765625,31.320326C23.9765625,32.160126000000005,23.2929635,32.843725,22.4531635,32.843725L8.6718726,32.843725C7.8320324,32.843725,7.1484425,32.160126000000005,7.1484425,31.320326L7.1484425,8.7109351C7.1484425,7.8710949,7.8320324,7.187505,8.6718726,7.187505L22.4531635,7.187505C23.2929635,7.187505,23.9765625,7.8710949,23.9765625,8.7109351L23.9765625,10.6875048C23.9765625,11.582035099999999,24.6992625,12.3046846,25.5937635,12.3046846C26.4882625,12.3046846,27.2109625,11.582035099999999,27.2109625,10.6875048L27.2109625,8.7109351C27.2109625,6.0898449,25.0781635,3.953125,22.4531635,3.953125L8.6718726,3.953125C6.0507824,3.953125,3.9140625,6.0859351,3.9140625,8.7109351L3.9140625,31.320326C3.9140625,33.941424999999995,6.0468726,36.078125,8.6718726,36.078125ZM29.2031635,27.074224C28.7890625,27.074224,28.3749615,26.917925,28.0585635,26.601524C27.4257625,25.968725,27.4257625,24.945326,28.0585635,24.312525L30.7382625,21.632826L18.3710625,21.632826C17.4765625,21.632826,16.7538625,20.910126,16.7538625,20.015625C16.7538625,19.121125,17.4765625,18.398425,18.3710625,18.398425L30.7382625,18.398425L28.0585635,15.718725C27.4257625,15.085925,27.4257625,14.062525,28.0585635,13.4296846C28.6913625,12.796875,29.7148625,12.796875,30.3476615,13.4296846L35.7851615,18.871125C36.4179615,19.503925000000002,36.4179615,20.527325,35.7851615,21.160126L30.3476615,26.597626C30.0312635,26.914024,29.6171625,27.074224,29.2031635,27.074224Z" fill-rule="evenodd" fill="#000000" fill-opacity="1"/></svg>