<svg xmlns="http://www.w3.org/2000/svg" xmlns:xlink="http://www.w3.org/1999/xlink" fill="none" version="1.1" width="40" height="40" viewBox="0 0 40 40"><defs><clipPath id="master_svg0_1_002"><rect x="0" y="0" width="40" height="40" rx="0"/></clipPath></defs><g clip-path="url(#master_svg0_1_002)"><path d="M16.874945507812498,36.668697269393924L7.2616453078125,36.668697269393924C4.5652454078125,36.668697269393924,2.3741455078125,34.47759626939392,2.3741455078125,31.78119426939392L2.3741455078125,8.230395069393921C2.3741455078125,5.534005169393921,4.5652454078125,3.342895269393921,7.2616453078125,3.342895269393921L16.874945507812498,3.342895269393921C19.5713465078125,3.342895269393921,21.7624455078125,5.534005169393921,21.7624455078125,8.230395069393921L21.7624455078125,11.26555516939392C21.7624455078125,12.239285269393921,20.9736465078125,13.02804536939392,19.9999445078125,13.02804536939392C19.0261455078125,13.02804536939392,18.237445507812502,12.239285269393921,18.237445507812502,11.26555516939392L18.237445507812502,8.230395069393921C18.237445507812502,7.477575069393921,17.6277455078125,6.867895369393921,16.874945507812498,6.867895369393921L7.2616453078125,6.867895369393921C6.5088253078125,6.867895369393921,5.8991456078125,7.477575069393921,5.8991456078125,8.230395069393921L5.8991456078125,31.78119426939392C5.8991456078125,32.53399426939392,6.5088253078125,33.143695269393916,7.2616453078125,33.143695269393916L16.874945507812498,33.143695269393916C17.6277455078125,33.143695269393916,18.237445507812502,32.53399426939392,18.237445507812502,31.78119426939392L18.237445507812502,28.74209526939392C18.237445507812502,27.76839626939392,19.0261455078125,26.979595269393922,19.9999445078125,26.979595269393922C20.9736465078125,26.979595269393922,21.7624455078125,27.76839626939392,21.7624455078125,28.74209526939392L21.7624455078125,31.78119426939392C21.7624455078125,34.47759626939392,19.5713465078125,36.668697269393924,16.874945507812498,36.668697269393924ZM37.1569445078125,18.80769526939392C37.4743465078125,19.12509526939392,37.6725465078125,19.56999526939392,37.6725465078125,20.05459526939392C37.6725465078125,20.54399426939392,37.4738465078125,20.984195269393922,37.1540455078125,21.30839526939392L37.1530455078125,21.30929526939392L29.3327445078125,29.12959426939392C28.9890465078125,29.47339626939392,28.5390455078125,29.645194269393922,28.0858455078125,29.645194269393922C27.6327455078125,29.645194269393922,27.1827445078125,29.47339626939392,26.8389455078125,29.12959426939392C26.1523455078125,28.43859426939392,26.1512455078125,27.32359526939392,26.8389455078125,26.63589426939392L31.6538445078125,21.820995269393922L11.5819559078125,21.820995269393922C10.6082153078125,21.820995269393922,9.8194556078125,21.03229526939392,9.8194556078125,20.058494269393922C9.8194556078125,19.084795269393922,10.6082258078125,18.29599526939392,11.5819559078125,18.29599526939392L31.6538445078125,18.29599526939392L26.8389455078125,13.48119526939392C26.1523455078125,12.790155169393921,26.1512455078125,11.67513536939392,26.8389455078125,10.987415069393922C27.5299455078125,10.300795269393921,28.6449455078125,10.29968526939392,29.3327445078125,10.987375469393921L37.1569445078125,18.80769526939392Z" fill-rule="evenodd" fill="#000000" fill-opacity="1"/></g></svg>