<svg xmlns="http://www.w3.org/2000/svg" xmlns:xlink="http://www.w3.org/1999/xlink" fill="none" version="1.1" width="40" height="40" viewBox="0 0 40 40"><path d="M34.6132620859375,17.347686523437503C34.9179610859375,17.5624865234375,35.2655640859375,17.6640865234375,35.6093630859375,17.6640865234375L35.6054610859375,17.6718865234375C36.1522640859375,17.6718865234375,36.6913640859375,17.4140865234375,37.0272640859375,16.933586523437498C37.5780640859375,16.148486523437498,37.3905640859375,15.0663865234375,36.6054610859375,14.5155865234375L22.7108630859375,4.7617244734375C20.9413620859375,3.5195369734375,18.570263085937498,3.5351619734375,16.8163630859375,4.8046932234375L3.3710422559374997,14.5273865234375C2.5976037979375,15.0898865234375,2.4218225459375,16.1718865234375,2.9843225459375002,16.9491865234375C3.5468225459375002,17.722686523437503,4.6288528859374996,17.898486523437498,5.4061927859375,17.335986523437498L18.8475630859375,7.6093769234375C19.4061620859375,7.207036923437499,20.1600630859375,7.2031269234375,20.7186620859375,7.5976667234375L34.6132620859375,17.347686523437503ZM14.2187500859375,23.1679665234375C14.2187500859375,26.3945275234375,16.8437500859375,29.0195065234375,20.0703110859375,29.0195065234375C23.2968710859375,29.0195065234375,25.9218500859375,26.3945275234375,25.9218500859375,23.1679665234375C25.9218500859375,19.9414065234375,23.2968710859375,17.3164065234375,20.0703110859375,17.3164065234375C16.8437500859375,17.3164065234375,14.2187500859375,19.9414065234375,14.2187500859375,23.1679665234375ZM10.8515128859375,36.1640855234375L29.0819620859375,36.1640855234375L29.0780620859375,36.1601865234375C31.8710630859375,36.1601865234375,34.1405620859375,33.8905865234375,34.1405620859375,31.0976865234375L34.1405620859375,20.0819855234375C34.1405620859375,19.1249865234375,33.3632620859375,18.347686523437503,32.406162085937495,18.347686523437503C31.4491630859375,18.347686523437503,30.6718630859375,19.1249865234375,30.6718630859375,20.0819855234375L30.6718630859375,31.0976865234375C30.6718630859375,31.9765875234375,29.9569620859375,32.6913875234375,29.0780620859375,32.6913875234375L10.8515128859375,32.6913875234375C9.972602885937501,32.6913875234375,9.257762885937499,31.9765875234375,9.257762885937499,31.0976865234375L9.257762885937499,20.0819855234375C9.257762885937499,19.1249865234375,8.4804129859375,18.347686523437503,7.5233826859375,18.347686523437503C6.5663528859374996,18.347686523437503,5.7890128859375,19.1249865234375,5.7890128859375,20.0819855234375L5.7890128859375,31.1015875234375C5.7890128859375,33.894586523437496,8.0585426859375,36.1640855234375,10.8515128859375,36.1640855234375ZM17.6875000859375,23.1679665234375C17.6875000859375,21.8515665234375,18.7578110859375,20.7851565234375,20.0703110859375,20.7851565234375C21.3828110859375,20.7851565234375,22.4531290859375,21.8554665234375,22.4531290859375,23.1679665234375C22.4531290859375,24.4843765234375,21.3828110859375,25.5507855234375,20.0703110859375,25.5507855234375C18.7539100859375,25.5507855234375,17.6875000859375,24.4804665234375,17.6875000859375,23.1679665234375Z" fill-rule="evenodd" fill="#000000" fill-opacity="1"/></svg>