<svg xmlns="http://www.w3.org/2000/svg" xmlns:xlink="http://www.w3.org/1999/xlink" fill="none" version="1.1" width="40" height="40" viewBox="0 0 40 40"><path d="M24.19911725,14.4079965C25.37674725,15.7875695,27.12754625,16.6640375,29.07815525,16.6640375C32.61325625,16.6640375,35.48825625,13.7851572,35.492157250000005,10.2499976C35.492157250000005,6.714847600000001,32.61325625,3.8359375,29.07815525,3.8359375C25.54295525,3.8359375,22.66405725,6.714847600000001,22.66405725,10.2499976C22.66405725,10.6679597,22.70430025,11.0767479,22.78111125,11.472689599999999L15.16300825,16.2277235C13.94793625,15.1438325,12.34649275,14.4843375,10.593746150000001,14.4843375C6.80468635,14.4843375,3.72265625,17.5664375,3.72265625,21.3554385C3.72265625,25.1445365,6.80468635,28.2265375,10.593746150000001,28.2265375C12.12397195,28.2265375,13.53887175,27.7238825,14.68202525,26.8749985L25.65661825,30.7973385C25.65637825,30.8179755,25.65625525,30.8386445,25.65625525,30.8593365C25.65625525,33.7461375,28.00395625,36.0976375,30.89455625,36.0976375C33.78125525,36.0976375,36.13285425,33.7500385,36.13285425,30.8593365C36.13285425,27.9687365,33.78125525,25.6211375,30.89455625,25.6211375C29.18048325,25.6211375,27.65507525,26.4502235,26.69862325,27.7281475L16.84481925,24.2074415C17.24287525,23.3383065,17.46485625,22.3723375,17.46485625,21.3554385C17.46485625,20.4889835,17.303689249999998,19.6594935,17.009755249999998,18.895373499999998L24.19911725,14.4079965ZM13.54279705,19.2355795C13.55375575,19.2516515,13.56496525,19.267466499999998,13.57641605,19.2830205C13.98614325,19.8710805,14.22655625,20.5855865,14.22655625,21.3554385C14.22655625,22.3305115,13.84088525,23.2167965,13.21400075,23.8698345C13.19424915,23.8889445,13.17495055,23.9085925,13.15613175,23.9287685C12.49885365,24.5832725,11.59291645,24.9882375,10.593746150000001,24.9882375C8.58984615,24.9882375,6.96093635,23.3593365,6.96093635,21.3554385C6.96093635,19.3515375,8.593746150000001,17.722637499999998,10.593746150000001,17.722637499999998C11.80697635,17.722637499999998,12.88274665,18.319705499999998,13.54279705,19.2355795ZM25.90625525,10.2499976C25.90625525,8.4999976,27.32815525,7.0781274,29.07815525,7.0781274C30.82815525,7.0781274,32.24995625,8.4999976,32.24995625,10.2499976C32.24995625,11.9999971,30.82815525,13.4218779,29.07815525,13.4218779C27.32815525,13.4218779,25.90625525,11.9999971,25.90625525,10.2499976ZM28.89845625,30.8554385C28.89845625,29.7539365,29.79295525,28.8593365,30.89455625,28.8593365C31.99605525,28.8593365,32.890655249999995,29.7578375,32.890655249999995,30.8593365C32.890655249999995,31.9609375,31.99215725,32.8515375,30.89455625,32.8515375C29.79685625,32.8515375,28.89845625,31.9570365,28.89845625,30.8554385Z" fill-rule="evenodd" fill="#000000" fill-opacity="1"/></svg>