<svg xmlns="http://www.w3.org/2000/svg" xmlns:xlink="http://www.w3.org/1999/xlink" fill="none" version="1.1" width="40" height="40" viewBox="0 0 40 40"><defs><clipPath id="master_svg0_1_876"><rect x="0" y="0" width="40" height="40" rx="0"/></clipPath></defs><g clip-path="url(#master_svg0_1_876)"><path d="M28.824249,11.1953173C28.824249,11.1953173,36.328152,11.1953173,36.328152,11.1953173C36.328152,11.1953173,36.328152,4.8046875,36.328152,4.8046875C36.328152,3.5117176,35.277349,2.4609375,33.98435,2.4609375C33.98435,2.4609375,6.25,2.4609375,6.25,2.4609375C4.9570301,2.4609375,3.90625,3.5117176,3.90625,4.8046875C3.90625,4.8046875,3.90625,11.1953173,3.90625,11.1953173C3.90625,11.1953173,11.410160099999999,11.1953173,11.410160099999999,11.1953173C11.5390601,11.6445274,11.78125,12.0507774,12.1171904,12.3789072C12.1171904,12.3789072,14.10935,14.3203375,14.10935,14.3203375C14.10935,14.3203375,3.90625,14.3203375,3.90625,14.3203375C3.90625,14.3203375,3.90625,35.0898365,3.90625,35.0898365C3.90625,36.3828395,4.9570301,37.4336355,6.25,37.4336355C6.25,37.4336355,33.98435,37.4336355,33.98435,37.4336355C35.277349,37.4336355,36.328152,36.3828395,36.328152,35.0898365C36.328152,35.0898365,36.328152,14.3203375,36.328152,14.3203375C36.328152,14.3203375,26.12505,14.3203375,26.12505,14.3203375C26.12505,14.3203375,28.117149,12.3789072,28.117149,12.3789072C28.45315,12.0507774,28.695351,11.6445274,28.824249,11.1953173C28.824249,11.1953173,28.824249,11.1953173,28.824249,11.1953173ZM26.054649,33.1406385C26.054649,33.355438500000005,25.87895,33.5312365,25.664049,33.5312365C25.664049,33.5312365,14.65625,33.5312365,14.65625,33.5312365C14.33595,33.5312365,14.15235,33.1640375,14.34375,32.9062365C14.34375,32.9062365,20.83205,24.2812365,20.83205,24.2812365C21.023451,24.0234375,20.84375,23.6562365,20.51955,23.6562365C20.51955,23.6562365,15.48825,23.6562365,15.48825,23.6562365C15.27345,23.6562365,15.09765,23.4804385,15.09765,23.2656385C15.09765,23.2656385,15.09765,22.1484375,15.09765,22.1484375C15.09765,21.9336375,15.27345,21.7578375,15.48825,21.7578375C15.48825,21.7578375,24.33205,21.7578375,24.33205,21.7578375C24.652349,21.7578375,24.835951,22.1250385,24.64455,22.3828375C24.64455,22.3828375,19.36325,29.4023385,19.36325,29.4023385C18.67185,30.3203375,19.32815,31.6328375,20.476549,31.6328375C20.476549,31.6328375,23.777349,31.6328375,23.777349,31.6328375C23.992149,31.6328375,24.16795,31.4570365,24.16795,31.2421375C24.16795,31.2421375,24.16795,29.3906385,24.16795,29.3906385C24.16795,29.1757375,24.34375,29.0000385,24.55855,29.0000385C25.382851,29.0000385,26.054649,29.6679385,26.054649,30.4961375C26.054649,30.4961375,26.054649,33.1406385,26.054649,33.1406385C26.054649,33.1406385,26.054649,33.1406385,26.054649,33.1406385ZM26.48045,10.6992178C26.48045,10.6992178,23.54685,13.5586375,23.54685,13.5586375C23.54685,13.5586375,24.238251,17.597637499999998,24.238251,17.597637499999998C24.285151,17.875037499999998,23.99605,18.0859375,23.74605,17.9570375C23.74605,17.9570375,20.117149,16.0507375,20.117149,16.0507375C20.117149,16.0507375,16.48825,17.9570375,16.48825,17.9570375C16.23825,18.0898375,15.94925,17.875037499999998,15.99605,17.597637499999998C15.99605,17.597637499999998,16.68745,13.5586375,16.68745,13.5586375C16.68745,13.5586375,13.7539101,10.6992178,13.7539101,10.6992178C13.5507803,10.5039072,13.6640596,10.1601577,13.94145,10.121097599999999C13.94145,10.121097599999999,18.00005,9.5312476,18.00005,9.5312476C18.00005,9.5312476,19.81245,5.8554676,19.81245,5.8554676C19.93745,5.6015575,20.29685,5.6015575,20.42185,5.8554676C20.42185,5.8554676,22.23435,9.5312476,22.23435,9.5312476C22.23435,9.5312476,26.289049,10.121097599999999,26.289049,10.121097599999999C26.570351,10.1601577,26.68355,10.5039072,26.48045,10.6992178C26.48045,10.6992178,26.48045,10.6992178,26.48045,10.6992178Z" fill="#000000" fill-opacity="1"/></g></svg>